<svg id="svg1" width="16" height="16" fill="currentColor" version="1.1" viewBox="0 0 16 16" xmlns="http://www.w3.org/2000/svg"><path id="path1" d="M 13.957031 8.785156 C 13.988281 8.527344 14.015625 8.265625 14.015625 8 C 14.015625 7.734375 13.988281 7.472656 13.957031 7.214844 L 15.648438 5.894531 C 15.796875 5.769531 15.839844 5.558594 15.742188 5.390625 L 14.140625 2.617188 C 14.046875 2.453125 13.84375 2.378906 13.660156 2.441406 L 11.667969 3.242188 C 11.253906 2.917969 10.792969 2.65625 10.304688 2.457031 L 10.003906 0.335938 C 9.96875 0.140625 9.800781 -0.00390625 9.601562 0 L 6.398438 0 C 6.199219 -0.00390625 6.03125 0.140625 5.996094 0.335938 L 5.695312 2.457031 C 5.207031 2.65625 4.746094 2.917969 4.332031 3.242188 L 2.339844 2.441406 C 2.15625 2.378906 1.953125 2.453125 1.859375 2.617188 L 0.257812 5.390625 C 0.160156 5.558594 0.203125 5.769531 0.351562 5.894531 L 2.042969 7.214844 C 2.011719 7.472656 1.984375 7.734375 1.984375 8 C 1.984375 8.265625 2.011719 8.527344 2.042969 8.785156 L 0.351562 10.105469 C 0.203125 10.230469 0.160156 10.441406 0.257812 10.609375 L 1.859375 13.382812 C 1.953125 13.546875 2.15625 13.621094 2.339844 13.558594 L 4.332031 12.757812 C 4.75 13.078125 5.207031 13.339844 5.695312 13.542969 L 5.996094 15.664062 C 6.03125 15.859375 6.199219 16.003906 6.398438 16 L 9.601562 16 C 9.800781 16.003906 9.96875 15.859375 10.003906 15.664062 L 10.304688 13.542969 C 10.792969 13.339844 11.25 13.078125 11.667969 12.757812 L 13.660156 13.558594 C 13.84375 13.621094 14.046875 13.546875 14.140625 13.382812 L 15.742188 10.609375 C 15.839844 10.441406 15.796875 10.230469 15.648438 10.105469 Z M 8.007812 10.804688 C 6.460938 10.804688 5.207031 9.546875 5.207031 8 C 5.207031 6.453125 6.460938 5.195312 8.007812 5.195312 C 9.554688 5.195312 10.8125 6.453125 10.8125 8 C 10.8125 9.546875 9.554688 10.804688 8.007812 10.804688 Z"/></svg>
