<svg id="faugus-mono" version="1.1" viewBox="0 0 899 899" xmlns="http://www.w3.org/2000/svg">
  <style id="current-color-scheme" type="text/css">.ColorScheme-Text { color: #fcfcfc; } </style>
  <g class="ColorScheme-Text" fill="currentColor">
    <circle cx="579.72" cy="607.7" r="28.5"/>
    <circle cx="687.3" cy="607.7" r="28.5"/>
    <circle cx="633.66" cy="553.79" r="28.5"/>
    <circle cx="633.66" cy="658.97" r="28.5"/>
    <path d="M348.34,605.6c0,14.25-6.09,24-17.71,28.53-3.6,1.4-7.32,1.75-11.12,1.75-7.18-.01-14.36.06-21.54-.05-2.05-.04-2.64.57-2.62,2.61.1,7.85.11,15.72.01,23.57-.19,14.79-12.21,26.49-27.04,26.77-7.45.13-14.52-.62-20.65-5.34-7.14-5.48-10.97-12.7-11.14-21.7-.14-7.76-.09-15.52.02-23.28.03-2.03-.57-2.69-2.6-2.62-4.27.14-8.54.04-12.81.04v-.09c-3.88,0-7.77.17-11.64-.03-14.12-.73-25.17-11.99-25.95-26.15-.62-11.25,2.24-20.92,11.89-27.74,4.74-3.35,10.06-4.9,15.83-4.93,7.57-.04,15.14-.08,22.7.04,2.07.04,2.61-.59,2.58-2.61-.12-7.37-.06-14.75-.05-22.12.04-15.66,11.03-27.23,26.62-28.18,11.06-.67,20.53,2.26,27.28,11.61,3.2,4.44,4.93,9.43,4.97,14.92.05,7.77.12,15.53-.02,23.29-.05,2.35.47,3.16,2.98,3.1,7.18-.18,14.36-.09,21.54-.06,16.74.08,28.47,11.9,28.47,28.67Z"/>
    <path d="M592.2,399.87c23.06-23.51,36.43-52.54,42.67-84.81,7.18-37.1,6.61-73.71-13.55-107.22-21.49-35.7-53.62-41.16-86.01-15.72-16.43,12.9-29.81,28.81-43.86,44.05-13.16,14.27-25.82,29.04-41.96,41.06-16.14-12.02-28.8-26.79-41.96-41.06-14.05-15.24-27.43-31.15-43.86-44.05-32.39-25.44-64.52-19.98-86.01,15.72-20.16,33.51-20.73,70.12-13.55,107.22,6.24,32.27,19.61,61.3,42.67,84.81-8.15,13.8-15.95,27.63-23.31,41.51h332.04c-7.36-13.88-15.16-27.71-23.31-41.51ZM331.18,328.99c-4.54-5.93-8.23-12.44-9.51-20.67,29.67-18.8,20.78-45.88,17.07-71.04,16.44-10.46,29.17-8.14,40.45,6.77,16.29,21.52,16.17,63.32-.24,84.69-13.85,18.03-34,18.22-47.78.25ZM454.74,414.64c-1.37.75-3.32,1.09-5.25,1.03-1.93.06-3.88-.28-5.25-1.03-17.92-9.73-38.33-9.84-59.41-15.59,22.07-14.04,42.69-27.14,64.66-41.11,21.97,13.97,42.59,27.07,64.66,41.11-21.08,5.75-41.49,5.86-59.41,15.59ZM564.92,328.74c-13.85,18.03-34,18.22-47.78.25-4.54-5.93-8.23-12.44-9.51-20.67,29.67-18.8,20.78-45.88,17.07-71.04,16.44-10.46,29.17-8.14,40.45,6.77,16.29,21.52,16.17,63.32-.24,84.69Z"/>
    <path d="M449.5,14.5C209.26,14.5,14.5,209.26,14.5,449.5s194.76,435,435,435,435-194.76,435-435S689.74,14.5,449.5,14.5ZM774.11,692.08s-.03.04-.04.07c-.01.02-.02.04-.04.06-2.38,3.92-4.93,7.73-7.62,11.42-20.52,28.14-49.73,49.55-83.69,60.26-15.69,4.96-32.39,7.63-49.72,7.63-.92,0-1.83-.07-2.72-.19-59.94-1-112.1-33.93-140.18-82.54h-81.21c-28.52,49.37-81.87,82.59-142.98,82.59-17.33,0-34.03-2.67-49.72-7.63-33.96-10.71-63.17-32.12-83.69-60.26-2.69-3.69-5.24-7.5-7.62-11.42-.66-1.09-1.31-2.18-1.94-3.28-.11-.19-.21-.38-.32-.57-.52-.9-1.02-1.81-1.51-2.72-.36-.66-.73-1.33-1.08-2-.48-.9-.94-1.81-1.4-2.72-.35-.7-.7-1.39-1.05-2.09-.44-.9-.87-1.8-1.29-2.71-.34-.73-.67-1.46-1-2.19-.4-.9-.8-1.8-1.18-2.71-.32-.76-.64-1.52-.95-2.28-.37-.9-.73-1.8-1.08-2.71-.31-.79-.6-1.58-.9-2.37-.33-.9-.66-1.8-.98-2.7-.29-.82-.56-1.64-.84-2.46-.3-.9-.59-1.79-.88-2.7-.27-.84-.52-1.69-.77-2.54-.27-.89-.53-1.79-.78-2.69-.24-.87-.47-1.75-.7-2.63-.23-.89-.46-1.78-.68-2.67-.22-.91-.42-1.82-.63-2.73-.2-.88-.4-1.76-.58-2.65-.19-.94-.37-1.89-.55-2.83-.16-.87-.33-1.74-.48-2.61-.17-.98-.31-1.96-.47-2.95-.13-.85-.27-1.71-.39-2.56-.14-1.03-.26-2.06-.38-3.1-.1-.82-.2-1.64-.29-2.47-.11-1.1-.2-2.22-.29-3.33-.06-.77-.14-1.53-.19-2.3-.09-1.25-.14-2.51-.2-3.76-.03-.64-.07-1.28-.1-1.92-.07-1.9-.1-3.82-.1-5.73,0-3.75.13-7.48.37-11.17,3.13-46.81,25.79-88.28,59.9-116.33,23.18-43.03,44.93-86.75,51.57-136.55,4.72-35.36,5.29-71.14,12.01-106.37,22.59-118.43,117.38-192.11,224.73-191.05,107.35-1.06,202.14,72.62,224.73,191.05,6.72,35.23,7.29,71.01,12.01,106.37,6.64,49.8,28.39,93.51,51.56,136.54h.01c34.12,28.06,56.78,69.54,59.91,116.36.25,3.69.37,7.4.37,11.15,0,30.08-8.07,58.27-22.13,82.56,0,0,.01,0,.02-.01-.52.92-1.07,1.82-1.62,2.73-.08.14-.16.28-.25.42Z"/>
  </g>
</svg>
