<svg id="svg2" width="15" height="14" version="1.1" viewBox="0 0 15 14" xmlns="http://www.w3.org/2000/svg"><g id="g2" transform="translate(-1,-1)" fill="#2e3436" style="fill:#000000"><path id="path1" d="m13 5v.00391c.26562 0 .51953.10547.70703.28906l2 2c.39062.39062.39062 1.0234 0 1.4141l-2 2c-.1875.18359-.44141.28906-.70703.28515v.007812h-1v-2h-5c-.55078 0-1-.44922-1-1s.44922-1 1-1h5v-2z" style="fill:#000000"/><path id="path2" d="m4 1c-1.6445 0-3 1.3555-3 3v8c0 1.6445 1.3555 3 3 3h4c1.6445 0 3-1.3555 3-3v-1c0-.55078-.44922-1-1-1s-1 .44922-1 1v1c0 .57031-.42969 1-1 1h-4c-.57031 0-1-.42969-1-1v-8c0-.57031.42969-1 1-1h4c.57031 0 1 .42969 1 1v1c0 .55078.44922 1 1 1s1-.44922 1-1v-1c0-1.6445-1.3555-3-3-3z" style="fill:#000000"/></g></svg>
