<svg id="svg1" width="51.91" height="53.28" fill="currentColor" version="1.1" viewBox="0 0 19.466 19.98" xmlns="http://www.w3.org/2000/svg"><path id="path1" d="m17.173 10.97c.04-.32.07-.65.07-.98 0-.33-.03-.66-.07-.98l2.11-1.65a.5.5 0 00.12-.63l-2-3.46a.5.5 0 00-.6-.22l-2.49 1a7.05 7.05 0 00-1.7-.98l-.38-2.65a.5.5 0 00-.5-.42h-4a.5.5 0 00-.5.42l-.38 2.65a7.05 7.05 0 00-1.7.98l-2.49-1a.5.5 0 00-.6.22l-2 3.46a.5.5 0 00.12.63l2.11 1.65c-.04.32-.07.65-.07.98 0 .33.03.66.07.98l-2.11 1.65a.5.5 0 00-.12.63l2 3.46a.5.5 0 00.6.22l2.49-1c.52.4 1.09.73 1.7.98l.38 2.65a.5.5 0 00.5.42h4a.5.5 0 00.5-.42l.38-2.65c.61-.25 1.18-.58 1.7-.98l2.49 1a.5.5 0 00.6-.22l2-3.46a.5.5 0 00-.12-.63zm-7.43 2.52a3.5 3.5 0 110-7 3.5 3.5 0 010 7z"/></svg>
