<svg id="Layer_1" width="16" height="16" version="1.1" viewBox="0 0 16 16" xmlns="http://www.w3.org/2000/svg"><path id="path1" fill="currentColor" d="M 7.417969 0.015625 C 9.675781 -0.121094 12.339844 0.546875 13.570312 2.597656 C 14.550781 4.234375 14.359375 6.074219 14.117188 7.894531 C 14.039062 8.488281 13.777344 9.410156 13.777344 9.953125 C 13.777344 10.496094 14.480469 10.75 14.539062 11.171875 C 14.578125 11.445312 14.3125 11.667969 14.238281 11.933594 C 14.097656 12.460938 14.335938 12.683594 13.753906 13.046875 C 13.023438 13.507812 11.769531 13.640625 11.429688 14.527344 C 11.316406 14.828125 11.359375 15.042969 11.300781 15.308594 C 11.207031 15.75 9.878906 15.910156 9.5 15.945312 C 8.5 16.03125 5.785156 16.078125 4.957031 15.585938 C 4.574219 15.359375 4.726562 15.082031 4.625 14.699219 C 4.488281 14.175781 4.171875 13.9375 3.714844 13.707031 C 3.257812 13.472656 2.21875 13.167969 1.949219 12.804688 C 1.738281 12.519531 1.84375 12.191406 1.742188 11.875 C 1.683594 11.699219 1.480469 11.476562 1.460938 11.320312 C 1.390625 10.8125 2.1875 10.5 2.21875 10.027344 C 2.246094 9.636719 2.019531 8.855469 1.957031 8.425781 C 1.65625 6.324219 1.324219 4.109375 2.640625 2.273438 C 3.71875 0.78125 5.636719 0.125 7.417969 0.015625 Z M 4.605469 7.167969 C 3.574219 7.292969 3.222656 8.625 3.167969 9.496094 C 3.125 10.152344 3.175781 10.679688 3.914062 10.808594 C 4.28125 10.867188 5.40625 10.847656 5.746094 10.746094 C 6.933594 10.386719 7.460938 8.394531 6.457031 7.613281 C 6.035156 7.285156 5.125 7.105469 4.605469 7.167969 Z M 10.957031 7.167969 C 9.484375 7.265625 8.667969 8.042969 9.140625 9.570312 C 9.308594 10.105469 9.722656 10.597656 10.28125 10.75 C 10.625 10.847656 11.714844 10.867188 12.082031 10.804688 C 13.042969 10.640625 12.882812 9.636719 12.742188 8.898438 C 12.542969 7.871094 12.117188 7.089844 10.957031 7.167969 Z M 7.949219 9.976562 C 7.753906 10.011719 7.324219 10.761719 7.214844 10.957031 C 7.070312 11.222656 6.589844 12.109375 6.722656 12.367188 C 6.835938 12.59375 7.839844 12.378906 8.011719 12.179688 C 8.183594 12.402344 9.011719 12.539062 9.210938 12.421875 C 9.332031 12.355469 9.292969 12.175781 9.273438 12.0625 C 9.203125 11.695312 8.492188 10.375 8.222656 10.105469 C 8.144531 10.023438 8.078125 9.957031 7.949219 9.980469 Z"/></svg>
