<svg id="Layer_1" width="39.995" height="48.893" version="1.1" viewBox="0 0 39.995 48.893" xmlns="http://www.w3.org/2000/svg"><path id="path1" fill="currentColor" d="m18.223.052733c6.89-.42 15.04 1.62 18.79 7.88 3 5.01 2.42 10.63 1.68 16.19-.24 1.82-1.04 4.63-1.04 6.29s2.15 2.44 2.33 3.73c.12.83-.7 1.51-.92 2.32-.43 1.61.29 2.29-1.48 3.4-2.24 1.41-6.07 1.82-7.1 4.53-.35.92-.22 1.57-.4 2.39-.29 1.35-4.35 1.84-5.5 1.94-3.06.27-11.35.41-13.89-1.1-1.16-.69-.7-1.54-1.01-2.71-.42-1.6-1.38-2.32-2.78-3.03s-4.57-1.64-5.39-2.75c-.65-.88-.33-1.88-.64-2.84-.18-.54-.8-1.22-.86-1.7-.21-1.55 2.22-2.51 2.32-3.95.08-1.19-.61-3.58-.8-4.9-.92-6.42-1.94-13.19 2.09-18.79 3.29-4.57 9.15-6.57 14.6-6.9zm-8.6 21.85c-3.15.38-4.22 4.45-4.39 7.12-.13 2 .02 3.61 2.28 4 1.12.19 4.56.13 5.6-.19 3.63-1.09 5.24-7.18 2.17-9.57-1.29-1-4.07-1.55-5.66-1.36zm19.41 0c-4.5.3-7 2.68-5.55 7.34.51 1.64 1.78 3.14 3.48 3.61 1.06.29 4.38.35 5.51.16 2.93-.5 2.44-3.56 2.01-5.82-.6-3.14-1.9-5.53-5.45-5.29zm-9.19 8.58c-.6.11-1.91 2.4-2.24 3-.45.81-1.91 3.52-1.51 4.31.35.69 3.42.04 3.94-.57.53.68 3.05 1.09 3.67.74.37-.21.25-.76.18-1.1-.21-1.12-2.38-5.16-3.2-5.98-.25-.25-.45-.46-.84-.39z"/></svg>
